<?xml version="1.0" encoding="UTF-8"?>
<!DOCTYPE svg PUBLIC "-//W3C//DTD SVG 1.1//EN" "http://www.w3.org/Graphics/SVG/1.1/DTD/svg11.dtd">
<!-- Creator: CorelDRAW -->
<svg xmlns="http://www.w3.org/2000/svg" xml:space="preserve" width="111.423mm" height="111.312mm" version="1.1" style="shape-rendering:geometricPrecision; text-rendering:geometricPrecision; image-rendering:optimizeQuality; fill-rule:evenodd; clip-rule:evenodd"
viewBox="0 0 3524.41 3520.92"
 xmlns:xlink="http://www.w3.org/1999/xlink"
 xmlns:xodm="http://www.corel.com/coreldraw/odm/2003">
 <defs>
  <style type="text/css">
   <![CDATA[
    .fil0 {fill:#0CBB8D}
   ]]>
  </style>
 </defs>
 <g id="Layer_x0020_1">
  <metadata id="CorelCorpID_0Corel-Layer"/>
  <path class="fil0" d="M1522.94 1822.17c19.32,-5.16 145.72,-139.43 162.57,-156.28 110.91,-110.91 247.7,-255.05 359.24,-358.17l117.79 -117.15c0.57,-0.65 1.38,-1.6 1.95,-2.25 31.32,-36 73.83,-64.45 101.65,-99.74 10.14,-12.87 6.72,-11.32 20.31,-21.65 16.34,-12.41 25.73,-25.73 41.35,-38.36 137.48,-111.13 332.24,-101.4 459.1,20.51 73.16,70.3 99.56,150.81 99.56,257.06 0,159.68 -120.99,248.82 -221.31,349.27 -8.72,8.73 -14.04,14.42 -23.32,22.83l-25.61 24.74c-21.65,17.09 -31.32,27.59 -48,48.5 -32.91,41.26 -375.09,376.12 -408.62,405.3l-142.04 143.25c-0.6,0.62 -1.46,1.52 -2.07,2.12l-118.12 116.83c-47.84,47.84 -143.42,154.56 -195.71,186.07 -81.82,49.3 -215.46,62.68 -304.59,22.65 -87.24,-39.17 -141.56,-109.22 -208.66,-173.13l-239.2 -239.08c-15.91,-16 -35.8,-28.98 -50.17,-46.33 -16.3,-19.67 -25.49,-30.54 -44.46,-47.84 -0.64,-0.58 -1.6,-1.37 -2.24,-1.95l-4.39 -4c-0.62,-0.6 -1.5,-1.48 -2.11,-2.08l-39.22 -40.49c-33.69,-33.72 -63.92,-61.63 -94.41,-98.58 -55.71,-67.54 -92.94,-182.76 -60.23,-297.18 20.1,-70.33 41.68,-103.44 84.83,-150.12l4.07 -4.32c0.61,-0.61 1.5,-1.47 2.13,-2.07 0.18,-0.17 5.32,-4.7 6.66,-5.93 20.56,-18.81 44.24,-38.31 69.75,-51.92 116.18,-62.01 291.29,-48.66 385.7,48 11.14,11.41 16.63,13.68 27.15,23.2 15.95,14.42 29.55,35.58 47.34,49.16 18.06,13.78 33.32,29.84 49.32,47.17 5.02,5.45 5.61,6.73 9.53,11.45 3.45,4.16 1.07,1.46 5.82,6.77l129.37 126.55c16.23,16.23 31.06,34.98 49.3,47.2zm-1522.94 -952.37l0 155.23c0,9.94 4.19,15.23 4.19,25.17l-1.25 350.41c11.08,340.82 -25.65,568.28 88.82,912.96 41.07,123.67 94.15,240.47 160.75,351.09 56.76,94.28 123.55,178.84 194.09,263.21 3.25,3.88 2.9,3.56 5.76,6.83 113.69,130.31 252.15,239.89 398.43,331.57 52.09,32.64 109.47,59.48 164.48,87.25 103.72,52.37 232.84,92.32 345.67,119.68 13.99,3.39 21.19,4.44 35.08,7.21 22.04,4.39 44.34,8.56 70.6,13.31 24.94,4.52 47.43,7.71 72.65,11.3 117.63,16.74 279.79,22.56 397.26,6.15 52.94,-7.4 97.04,-10.82 146.86,-20.96 96.53,-19.65 195.29,-38.85 284.06,-76.75 96.28,-41.1 164.78,-63.88 260.66,-121.12l159.37 -100.75c17.61,-12.16 30.9,-23.21 47.3,-36.6 31.63,-25.82 66.06,-48.37 94.73,-77.28 7.92,-7.98 12.67,-13.36 21.08,-20.88l6.79 -5.79c0.66,-0.56 1.62,-1.35 2.28,-1.91l86.61 -85.41c46.63,-55.33 114.83,-129.14 164.91,-204.29 34.53,-51.82 67.97,-99.69 96.27,-155.45 39.49,-77.82 76.66,-154.96 107,-237.03 8.39,-22.7 16.01,-40.65 23.11,-64.99l26.95 -91.74c2.52,-11.29 6.25,-22.86 8.27,-32.45 5.22,-24.8 8.74,-45.4 13.9,-70.02l24.51 -147.5c6.72,-71.08 19.19,-176.49 9.92,-244.1 -3.69,-26.88 1.28,-55.03 -1.76,-82.15 -32.6,-291.19 -92.34,-525.11 -245.08,-778.6 -12.33,-20.46 -21.83,-34.45 -34.56,-53.54l-70.96 -101.05c-122.16,-162.76 -270.39,-299.77 -439.2,-412.47 -18.5,-12.35 -32.55,-20.52 -51.15,-32.75 -53.36,-35.09 -112.19,-61.84 -169.52,-90.6 -189.71,-95.16 -481.76,-163.62 -696.44,-163.62 -149.36,0 -254.11,5.06 -398.22,33.91 -193.86,38.81 -308.25,85.04 -477.24,168.86l-202.77 120.28c-16.38,0 -192.18,-136.76 -212.74,-152.26 -58.22,-43.87 -122.83,-88.04 -185.96,-124.5l-40.41 -22.51c-60.3,-32.56 -132.38,-33.91 -193.09,-1.49 -27.47,14.67 -48.22,33.28 -64.08,57.59 -14.64,22.43 -32.18,57.09 -33.8,92.07 -4.24,91.76 2.57,206.56 -2.08,297.25 -0.77,15.02 1.12,14.05 2.09,38.14 2.31,57.2 4.26,291.23 -2.54,349.66 -0.76,6.52 -1.58,0.82 -1.58,11.46z"/>
 </g>
</svg>
