<?xml version="1.0" encoding="UTF-8"?>
<!DOCTYPE svg PUBLIC "-//W3C//DTD SVG 1.1//EN" "http://www.w3.org/Graphics/SVG/1.1/DTD/svg11.dtd">
<!-- Creator: CorelDRAW -->
<svg xmlns="http://www.w3.org/2000/svg" xml:space="preserve" width="32.1229mm" height="32.1229mm" version="1.1" style="shape-rendering:geometricPrecision; text-rendering:geometricPrecision; image-rendering:optimizeQuality; fill-rule:evenodd; clip-rule:evenodd"
viewBox="0 0 69.83 69.83"
 xmlns:xlink="http://www.w3.org/1999/xlink"
 xmlns:xodm="http://www.corel.com/coreldraw/odm/2003">
 <defs>
  <style type="text/css">
   <![CDATA[
    .fil0 {fill:#0BBF53}
   ]]>
  </style>
 </defs>
 <g id="Layer_x0020_1">
  <metadata id="CorelCorpID_0Corel-Layer"/>
  <path class="fil0" d="M28.76 36.32c-1.08,0.23 -2.37,0.73 -3.71,1.18 -1.65,0.56 -3.42,0.99 -5.13,1.27 -1.28,0.21 -2.62,0.33 -3.81,0.19 -2.06,-0.23 -4.18,-1.62 -4.07,-3.9 0.07,-1.46 1.1,-2.86 2.49,-3.64 4.48,-2.49 13.02,2.11 16.62,4.01 3.34,1.76 8.52,4.64 12.82,6.14 3.04,1.06 6.01,1.77 9.25,1.19 1.5,-0.27 2.9,-0.77 3.99,-1.46 5.81,-3.7 4.48,-11.69 -2.51,-13.36 -2.48,-0.59 -5.03,-0.19 -7.5,0.29 -2.39,0.46 -6.16,1.29 -8.33,2.42 -0.95,0.5 -1.75,1.24 -1.26,2.41 0.31,0.74 1.22,1.26 2.79,0.84 3.42,-0.92 4.73,-2.02 8.99,-2.64 1.72,-0.25 4.12,-0.14 5.38,0.45 3.69,1.74 3.39,6.41 -2,7.44 -4.71,0.9 -9.43,-1.24 -13.49,-3.47 -4.59,-2.52 -9.14,-5.15 -14.12,-6.85 -3.21,-1.1 -6.7,-1.76 -9.74,-1.21 -4.44,0.8 -8.3,4.89 -6.75,9.55 1.11,3.32 4.25,5.31 7.63,5.65 1.46,0.15 2.88,0.01 4.15,-0.21 1.86,-0.33 7.4,-1.76 9.62,-2.87 2.57,-1.29 1.69,-4.06 -1.3,-3.42zm5.13 -23.19c-4.36,0 -7.89,3.53 -7.89,7.89 0,4.36 3.53,7.89 7.89,7.89 4.36,0 7.89,-3.53 7.89,-7.89 0,-4.36 -3.53,-7.89 -7.89,-7.89zm0 3.7c-2.31,0 -4.19,1.88 -4.19,4.19 0,2.31 1.88,4.19 4.19,4.19 2.31,0 4.19,-1.88 4.19,-4.19 0,-2.31 -1.88,-4.19 -4.19,-4.19zm0 24.41c-4.36,0 -7.89,3.53 -7.89,7.89 0,4.36 3.53,7.89 7.89,7.89 4.36,0 7.89,-3.53 7.89,-7.89 0,-4.36 -3.53,-7.89 -7.89,-7.89zm0 3.7c-2.31,0 -4.19,1.88 -4.19,4.19 0,2.31 1.88,4.19 4.19,4.19 2.31,0 4.19,-1.88 4.19,-4.19 0,-2.31 -1.88,-4.19 -4.19,-4.19zm1.02 -44.94c-19.28,0 -34.91,15.63 -34.91,34.92 0,19.28 15.63,34.91 34.91,34.91 19.28,0 34.92,-15.63 34.92,-34.91 0,-19.28 -15.63,-34.92 -34.92,-34.92z"/>
 </g>
</svg>
