<?xml version="1.0" encoding="UTF-8"?>
<!DOCTYPE svg PUBLIC "-//W3C//DTD SVG 1.1//EN" "http://www.w3.org/Graphics/SVG/1.1/DTD/svg11.dtd">
<!-- Creator: CorelDRAW -->
<svg xmlns="http://www.w3.org/2000/svg" xml:space="preserve" width="100.708mm" height="100.708mm" version="1.1" style="shape-rendering:geometricPrecision; text-rendering:geometricPrecision; image-rendering:optimizeQuality; fill-rule:evenodd; clip-rule:evenodd"
viewBox="0 0 348.37 348.37"
 xmlns:xlink="http://www.w3.org/1999/xlink"
 xmlns:xodm="http://www.corel.com/coreldraw/odm/2003">
 <defs>
  <style type="text/css">
   <![CDATA[
    .fil0 {fill:#0BBF53}
   ]]>
  </style>
 </defs>
 <g id="Layer_x0020_1">
  <metadata id="CorelCorpID_0Corel-Layer"/>
  <path class="fil0" d="M174.19 0c-96.2,0 -174.19,77.99 -174.19,174.19 0,96.2 77.99,174.19 174.19,174.19 96.2,0 174.19,-77.99 174.19,-174.19 0,-96.2 -77.99,-174.19 -174.19,-174.19zm-27.32 180.42c-4.78,1.01 -10.52,3.24 -16.46,5.25 -7.3,2.47 -15.16,4.4 -22.75,5.65 -5.68,0.94 -11.62,1.46 -16.9,0.86 -9.14,-1.03 -18.53,-7.17 -18.07,-17.32 0.29,-6.46 4.87,-12.7 11.05,-16.13 19.88,-11.04 57.74,9.37 73.73,17.8 14.83,7.82 37.8,20.58 56.87,27.26 13.46,4.71 26.65,7.85 41.02,5.28 6.66,-1.19 12.87,-3.41 17.71,-6.49 25.79,-16.43 19.9,-51.87 -11.13,-59.26 -11.01,-2.62 -22.33,-0.83 -33.27,1.27 -10.61,2.04 -27.33,5.7 -36.95,10.74 -4.22,2.21 -7.76,5.51 -5.59,10.7 1.36,3.26 5.42,5.6 12.39,3.71 15.16,-4.1 20.98,-8.98 39.87,-11.72 7.62,-1.1 18.29,-0.64 23.85,1.98 16.36,7.7 15.02,28.44 -8.88,33 -20.89,3.98 -41.82,-5.52 -59.83,-15.39 -20.38,-11.17 -40.56,-22.86 -62.62,-30.41 -14.25,-4.88 -29.72,-7.82 -43.23,-5.37 -19.68,3.56 -36.82,21.7 -29.93,42.36 4.92,14.74 18.86,23.57 33.84,25.08 6.46,0.65 12.78,0.05 18.4,-0.94 8.27,-1.44 32.82,-7.81 42.68,-12.74 11.42,-5.71 7.5,-17.99 -5.78,-15.17zm22.78 -102.86c-19.33,0 -35,15.67 -35,35 0,19.33 15.67,35 35,35 19.33,0 35,-15.67 35,-35 0,-19.33 -15.67,-35 -35,-35zm0 16.41c-10.27,0 -18.59,8.32 -18.59,18.59 0,10.27 8.32,18.59 18.59,18.59 10.27,0 18.59,-8.32 18.59,-18.59 0,-10.27 -8.32,-18.59 -18.59,-18.59zm0 108.28c-19.33,0 -35,15.67 -35,35 0,19.33 15.67,35 35,35 19.33,0 35,-15.67 35,-35 0,-19.33 -15.67,-35 -35,-35zm0 16.41c-10.27,0 -18.59,8.32 -18.59,18.59 0,10.27 8.32,18.59 18.59,18.59 10.27,0 18.59,-8.32 18.59,-18.59 0,-10.27 -8.32,-18.59 -18.59,-18.59zm4.54 -199.37c-85.55,0 -154.9,69.35 -154.9,154.9 0,85.55 69.35,154.9 154.9,154.9 85.55,0 154.9,-69.35 154.9,-154.9 0,-85.55 -69.35,-154.9 -154.9,-154.9zm0 -4.69c-88.14,0 -159.59,71.45 -159.59,159.59 0,88.14 71.45,159.59 159.59,159.59 88.14,0 159.59,-71.45 159.59,-159.59 0,-88.14 -71.45,-159.59 -159.59,-159.59z"/>
 </g>
</svg>
