<?xml version="1.0" encoding="UTF-8"?>
<!DOCTYPE svg PUBLIC "-//W3C//DTD SVG 1.1//EN" "http://www.w3.org/Graphics/SVG/1.1/DTD/svg11.dtd">
<!-- Creator: CorelDRAW -->
<svg xmlns="http://www.w3.org/2000/svg" xml:space="preserve" width="118.31mm" height="118.31mm" version="1.1" style="shape-rendering:geometricPrecision; text-rendering:geometricPrecision; image-rendering:optimizeQuality; fill-rule:evenodd; clip-rule:evenodd"
viewBox="0 0 160726.79 160726.79"
 xmlns:xlink="http://www.w3.org/1999/xlink"
 xmlns:xodm="http://www.corel.com/coreldraw/odm/2003">
 <defs>
  <style type="text/css">
   <![CDATA[
    .fil0 {fill:#25A4E3}
    .fil1 {fill:white}
   ]]>
  </style>
 </defs>
 <g id="Layer_x0020_1">
  <metadata id="CorelCorpID_0Corel-Layer"/>
  <g id="_105553212032704">
   <path class="fil0" d="M117577.31 54998.73c-1678.58,15524.59 -4386.11,31025.8 -7053.01,46243.64 -657.93,3753.99 -1288.55,7538 -2031.12,11256.13 -681.3,3411.1 -2040.76,7552.81 -5223.5,8091.05 -3591.1,607.26 -7540.45,-2170.09 -9545.75,-3611.34 -4703.73,-3380.8 -10909.02,-7330.42 -15948.17,-10797.63 -1968.9,-1354.71 -6368.59,-4139.81 -7829.67,-5480.8 -953.68,-875.29 -2224.84,-2582 -1461.36,-4589.21 843.91,-2218.73 3595.99,-4087.5 4597.9,-5322.67 742.7,-915.5 3274.84,-3082.07 4337.61,-4078.4l8583.24 -8112.65c313.95,-286.65 542.18,-488.66 857.77,-776.53l5130.71 -4915.11c585.25,-572.07 1055.7,-1049.45 1623.16,-1640.41l2371.29 -2654.54c853.28,-1159.49 -163.57,-2823.27 -2122.27,-1863.75 -1149.03,562.7 -7038.61,4489.63 -8188.32,5244.42 -7958.73,5225.13 -15945.86,10698.73 -23894.41,16037.29 -2443.16,1640.82 -5358.26,3874.49 -9164.55,4184.1 -3271.99,266 -8203.13,-1361.64 -11170.54,-2189.25 -2474.95,-690.26 -8062.93,-2320.75 -9776.97,-3532.96 -1763.08,-1246.85 -1674.78,-2811.59 -144.68,-4238.44 2076.22,-1936.29 10442.24,-5123.65 13573.21,-6516.26 12354.49,-5495.2 24845.1,-10719.24 37289.24,-16076.41 6191.98,-2665.55 12542.91,-5232.46 18890.45,-7730.1 3586.48,-1411.23 12251.24,-5443.44 15254.65,-2460.41 1159.22,1151.34 1253.37,3604.42 1045.11,5530.25zm-39786.2 -54998.73l5662.16 0c2683.89,96.86 5356.5,332.84 7998.67,714.85 4277.29,618.53 7973,1442.47 11972.34,2593.54 3101.77,892.82 5990.65,2002.05 8924.1,3255.96l4931.96 2350.91c5875.99,2937.93 13774.27,8422.4 18427.06,13090.39l3643 3640.01 5519.11 6661.08c3928.15,5230.02 7060.75,10938.1 9701.17,16919.1 3400.91,7703.6 6156.12,19119.08 6156.12,27747.16l0 3372.38c-11,4135.32 -109.22,7394.95 -807.77,12143.78 -427.25,2904.24 -966.99,5383.53 -1627.5,8041.2 -642.85,2586.34 -1446.55,4972.99 -2287.74,7380.96 -424.13,1213.97 -873.93,2255.55 -1339.77,3431.75 -238.69,602.64 -466.51,1101.62 -720.01,1665.81 -234.21,521.4 -494.23,1126.89 -750.72,1634.97 -1087.22,2153.52 -2092.52,4277.83 -3336.11,6332.73 -1830.33,3024.74 -3774.37,5856.84 -5884.55,8681.19l-2708.61 3318.72 -10405.83 10061.72c-4047.97,3224.17 -8389.66,6249.45 -13033.61,8563.95 -1103.25,549.93 -2115.62,1053.26 -3180.7,1591.09 -528.46,266.81 -1140.07,538.11 -1722.33,788.89 -1719.61,740.39 -3299.29,1439.48 -5104.63,2052.85 -5272,1791.34 -9866.09,2971.21 -15435.74,3901.66 -2598.84,434.05 -5842.44,790.11 -8753.06,790.11l-7294.96 0c-1342.76,-39.53 -2673.02,-122.67 -3971.35,-285.83 -4169.7,-524.12 -8419.27,-1253.91 -12340.63,-2225.25 -4548.18,-1126.75 -8408.4,-2704.81 -12629.18,-4448.19 -1663.91,-687.27 -3262.21,-1619.62 -4864.85,-2417.89 -3706.71,-1846.22 -7156.8,-4185.59 -10435.45,-6641.79l-5954.92 -4969.59c-1073.23,-856.14 -2021.07,-1920.94 -3000.96,-2900.7 -7468.45,-7468.58 -13420.51,-16544.02 -17341.74,-26355.9 -2476.58,-6196.87 -4118.34,-12385.73 -5096.34,-19138.24 -585.66,-4044.03 -697.73,-8628.08 -697.73,-12863.52 0,-6063.2 906.67,-11787.03 2310.57,-17403.55l1654.4 -5754.13c789.98,-2811.31 3598.3,-9638.95 5051.64,-12025.59l1739.17 -3158.01c2321.98,-4252.43 5154.48,-7724.53 8079.1,-11509.35l2290.87 -2606.45c237.47,-234.75 399,-382.69 631.44,-624.24 282.84,-293.85 309.88,-404.16 563.38,-692.16 1276.33,-1449.13 2944.99,-3023.38 4444.12,-4220.1l2617.18 -2280c255.81,-198.21 409.32,-326.86 700.18,-555.5l4146.6 -3136.27c1002.86,-692.98 1955.45,-1306.62 2938.2,-1959.12 1962.11,-1302.68 4173.09,-2369.12 6207.06,-3587.16 1755.07,-1050.81 4746.25,-2300.38 6709.71,-3084.51l4471.42 -1681.44c7393.46,-2465.3 15304.37,-3920.14 23236.07,-4202.3z"/>
   <path class="fil1" d="M117577.31 54998.73c208.26,-1925.83 114.12,-4378.91 -1045.11,-5530.25 -3003.41,-2983.03 -11668.16,1049.18 -15254.65,2460.41 -6347.53,2497.63 -12698.46,5064.55 -18890.45,7730.1 -12444.15,5357.17 -24934.76,10581.21 -37289.24,16076.41 -3130.97,1392.62 -11496.99,4579.97 -13573.21,6516.26 -1530.1,1426.85 -1618.4,2991.59 144.68,4238.44 1714.04,1212.2 7302.03,2842.7 9776.97,3532.96 2967.41,827.61 7898.55,2455.25 11170.54,2189.25 3806.29,-309.61 6721.4,-2543.28 9164.55,-4184.1 7948.55,-5338.56 15935.67,-10812.16 23894.41,-16037.29 1149.71,-754.79 7039.29,-4681.72 8188.32,-5244.42 1958.71,-959.52 2975.56,704.26 2122.27,1863.75l-2371.29 2654.54c-567.45,590.95 -1037.91,1068.34 -1623.16,1640.41l-5130.71 4915.11c-315.58,287.87 -543.81,489.88 -857.77,776.53l-8583.24 8112.65c-1062.77,996.34 -3594.91,3162.9 -4337.61,4078.4 -1001.91,1235.16 -3753.99,3103.94 -4597.9,5322.67 -763.49,2007.21 507.68,3713.91 1461.36,4589.21 1461.08,1340.99 5860.78,4126.09 7829.67,5480.8 5039.15,3467.21 11244.44,7416.82 15948.17,10797.63 2005.31,1441.25 5954.65,4218.6 9545.75,3611.34 3182.73,-538.24 4542.2,-4679.95 5223.5,-8091.05 742.57,-3718.12 1373.19,-7502.14 2031.12,-11256.13 2666.9,-15217.83 5374.43,-30719.05 7053.01,-46243.64z"/>
  </g>
 </g>
</svg>
