<?xml version="1.0" encoding="UTF-8"?>
<!DOCTYPE svg PUBLIC "-//W3C//DTD SVG 1.1//EN" "http://www.w3.org/Graphics/SVG/1.1/DTD/svg11.dtd">
<!-- Creator: CorelDRAW -->
<svg xmlns="http://www.w3.org/2000/svg" xml:space="preserve" width="46.3768mm" height="44.686mm" version="1.1" style="shape-rendering:geometricPrecision; text-rendering:geometricPrecision; image-rendering:optimizeQuality; fill-rule:evenodd; clip-rule:evenodd"
viewBox="0 0 532 512.6"
 xmlns:xlink="http://www.w3.org/1999/xlink"
 xmlns:xodm="http://www.corel.com/coreldraw/odm/2003">
 <defs>
  <style type="text/css">
   <![CDATA[
    .fil0 {fill:black}
   ]]>
  </style>
 </defs>
 <g id="Layer_x0020_1">
  <metadata id="CorelCorpID_0Corel-Layer"/>
  <path class="fil0" d="M225.82 54.03c54.79,0 96.88,14.44 134.04,51.61 30.11,30.12 52.99,73.39 52.99,118.8 0,32.17 -3.23,56.03 -16.6,83.15 -2.18,4.42 -4.55,9.58 -6.99,13.79 -8.79,15.18 -26.09,35.7 -39.15,46.75 -3.8,3.21 -7.89,6.01 -11.85,8.93 -70.47,52.02 -174.34,41.03 -233.34,-20.62l-9.65 -11.13c-7.89,-8.78 -20.94,-30.35 -25.42,-41.08 -28.48,-68.18 -16.92,-134.78 29.49,-189.64 2.33,-2.75 2.31,-3.37 4.9,-6.18 27.04,-29.33 79.56,-54.36 121.59,-54.36zm-225.82 171.79c0,67.15 21.78,123.61 66.85,168.67 21.9,21.9 37.01,32.77 65.23,46.99 55.55,28 129.36,30.28 187.57,7 12.41,-4.96 20.2,-9.09 30.86,-14.86 10.27,-5.55 18.31,-11.72 27.71,-18.01 3,4.49 8.44,9.74 12.88,13.45l47.75 43.69c2.62,2.43 4.34,4.37 6.91,6.94 5.34,5.35 7.94,7.64 13.79,12.53 17.31,14.47 13.94,20.37 40.59,20.37 15.7,0 31.86,-15.93 31.86,-36.02 0,-21.93 -18.71,-31.84 -33.6,-46.76l-42.25 -39.48c-9.07,-9.07 -22.91,-19.68 -28.06,-27.36 1.74,-6.52 40.18,-54.32 40.18,-130.23 0,-65.17 -22.46,-108.95 -58.39,-153.58 -2.95,-3.67 -3.54,-4.7 -7.06,-8.18 -21.95,-21.7 -31.22,-27.87 -55.88,-42.49 -24.75,-14.68 -66.91,-28.5 -101.73,-28.5 -43.75,0 -73.87,3.25 -112.24,22.15 -23.7,11.67 -31.35,17.83 -50.46,32.67 -46.19,35.85 -82.52,106.96 -82.52,171.01z"/>
 </g>
</svg>
