<?xml version="1.0" encoding="UTF-8"?>
<!DOCTYPE svg PUBLIC "-//W3C//DTD SVG 1.1//EN" "http://www.w3.org/Graphics/SVG/1.1/DTD/svg11.dtd">
<!-- Creator: CorelDRAW -->
<svg xmlns="http://www.w3.org/2000/svg" xml:space="preserve" width="187.934mm" height="81.7278mm" version="1.1" style="shape-rendering:geometricPrecision; text-rendering:geometricPrecision; image-rendering:optimizeQuality; fill-rule:evenodd; clip-rule:evenodd"
viewBox="0 0 1170.79 509.15"
 xmlns:xlink="http://www.w3.org/1999/xlink"
 xmlns:xodm="http://www.corel.com/coreldraw/odm/2003">
 <defs>
  <style type="text/css">
   <![CDATA[
    .fil0 {fill:#0BBF53}
   ]]>
  </style>
 </defs>
 <g id="Layer_x0020_1">
  <metadata id="CorelCorpID_0Corel-Layer"/>
  <path class="fil0" d="M14.02 314.87c18.13,34.1 52.23,53.52 88.96,61.55 43.88,9.6 93.09,1.92 135.68,-10.24 30.42,-8.69 113.91,-36.59 130.7,-53.07 17.75,-17.42 0.04,-49.91 -28.14,-40 -41.91,14.74 -75.86,34.75 -120.85,46.59 -42.75,11.25 -94.34,18.74 -131.28,-0.76 -50.81,-26.83 -52.85,-84.14 1.43,-112.68 29.67,-15.73 65.53,-17.47 100.05,-12.68 63.83,8.86 119.29,36.75 174.72,67.67 36.85,20.56 73.35,42.81 110.51,62.54 57.27,30.41 118.07,54.44 183.61,61.68 35.71,3.95 70.45,1.3 103.97,-11.97 29.63,-11.73 54.28,-30.47 68.55,-57.18 10.93,-20.45 15.26,-43.24 10.82,-66.11 -3.61,-18.59 -12.43,-36.47 -24.33,-50.46 -10.15,-11.94 -22.89,-21.59 -36.92,-28.88 -64.9,-33.73 -157.1,-13.03 -221.65,13 -10.85,4.37 -21.54,9.3 -31.85,12.65l0.52 -165.04c0.12,-38.83 -50.81,-39.69 -50.79,-1.16l0.12 204.91c0.01,19.4 8.92,22.03 17.77,27.18 14.99,1.71 24.08,-6.57 50.35,-18.62 26.75,-12.28 61.78,-25.88 96.56,-34.07 30.39,-7.16 71.91,-11.47 102.12,-0.29 53.28,19.72 71.3,77.19 14.26,110.98 -27.57,16.33 -66.29,18.56 -97.54,15.32 -10.17,-1.06 -35.09,-5.92 -56.5,-11.44 -32.43,-8.35 -65.04,-23.55 -94.57,-39.01 -70.16,-36.73 -139.67,-84.55 -213.33,-113.76 -39.67,-15.73 -85.86,-28.04 -128.47,-29.61 -17.42,-0.64 -34.95,0.28 -52.01,3.25 -32.09,5.6 -65.88,24 -88.63,49.48 -32.05,35.91 -36.19,78.22 -13.87,120.21zm155.11 -311.62l-41.82 41.81c-4.32,4.32 -4.32,11.4 0,15.72l41.82 41.81c4.32,4.32 11.4,4.32 15.72,0l41.82 -41.81c4.32,-4.32 4.32,-11.4 0,-15.72l-41.82 -41.81c-4.32,-4.32 -11.4,-4.32 -15.72,0zm726.1 203.37c-6.32,7.43 -11.82,15.72 -16.49,24.74 -16.83,32.54 -14.53,69.94 0.69,102.87 6.1,13.2 14.75,24.92 27.18,35.9 33.04,29.18 75.75,29.22 119.87,28.26 16.18,-0.35 33.98,0.54 49.74,-0.32 10.52,-0.58 18.11,-3.03 23.44,-12.53 2.22,-3.96 3.42,-8.52 3.41,-13.58 -0.08,-23.63 -21.2,-24.58 -39.48,-24.32 -35.81,0.51 -90.48,3.39 -112.28,-8.22 -43.4,-23.11 -44.21,-84.5 -6.72,-110.39 22.41,-15.47 43.45,-12.31 73.72,-12.31 23.03,0 62.38,-3.81 79.93,6.04 22.41,12.59 21.57,33.75 21.57,64.82 0,19.68 0.21,34.99 -0.85,50.94 -3.71,56.02 -22.06,79.14 -60.42,101.58 -86.36,50.54 -184.08,-20.93 -332.02,-32.59 -62.11,-4.89 -103.72,1.17 -160.43,21.24 -11.91,4.21 -22.83,9.15 -25.84,21.35 -4.53,18.34 10.3,33.7 28.12,31.18 3.37,-0.48 9.15,-2.7 14.42,-4.8 33.36,-13.29 68.38,-20.19 104.29,-20.83 55.63,-0.99 108.96,12.61 162.02,26.73 56.48,15.02 121.93,34.74 180.11,23.38 10.35,-2.02 20.98,-5.21 32.27,-9.96 36.97,-15.55 62.42,-38.23 81.55,-66.86 24.57,-36.78 27.27,-70.58 27.27,-121.68 0.01,-31.61 3.57,-61.54 -8.58,-87.13 -13.69,-28.83 -40.95,-49.77 -73.26,-52.71 -26.07,-2.37 -83.35,-1.03 -103.45,-1.05 -6.24,-0.01 -11.48,0.31 -15.96,0.81 -26.59,3.01 -56.6,19.17 -73.81,39.42z"/>
 </g>
</svg>
