<svg width="24" height="24" viewBox="0 0 24 24" fill="none" xmlns="http://www.w3.org/2000/svg">
<path fill-rule="evenodd" clip-rule="evenodd" d="M3 2.5C3 1.11929 4.11929 0 5.5 0H18.5C19.8807 0 21 1.11929 21 2.5V21.5C21 22.8807 19.8807 24 18.5 24H5.5C4.11929 24 3 22.8807 3 21.5V2.5ZM6.5 7C6.5 6.44772 6.94772 6 7.5 6H16.5C17.0523 6 17.5 6.44772 17.5 7C17.5 7.55228 17.0523 8 16.5 8H7.5C6.94772 8 6.5 7.55228 6.5 7ZM7.5 11C6.94772 11 6.5 11.4477 6.5 12C6.5 12.5523 6.94772 13 7.5 13H16.5C17.0523 13 17.5 12.5523 17.5 12C17.5 11.4477 17.0523 11 16.5 11H7.5ZM7.5 16C6.94772 16 6.5 16.4477 6.5 17C6.5 17.5523 6.94772 18 7.5 18H13C13.5523 18 14 17.5523 14 17C14 16.4477 13.5523 16 13 16H7.5Z" fill="currentColor"/>
</svg>
